<?xml version="1.0" standalone="no"?>
<!DOCTYPE svg PUBLIC "-//W3C//DTD SVG 20010904//EN"
 "http://www.w3.org/TR/2001/REC-SVG-20010904/DTD/svg10.dtd">
<svg version="1.0" xmlns="http://www.w3.org/2000/svg"
 width="83.000000pt" height="83.000000pt" viewBox="0 0 83.000000 83.000000"
 preserveAspectRatio="xMidYMid meet">
<metadata>
Created by potrace 1.11, written by Peter Selinger 2001-2013
</metadata>
<g transform="translate(0.000000,83.000000) scale(0.100000,-0.100000)"
fill="#000000" stroke="none">
<path d="M364 718 c-3 -5 -9 -6 -14 -3 -4 3 -13 -2 -20 -10 -6 -7 -18 -11 -26
-8 -9 3 -14 -1 -14 -11 0 -9 -7 -19 -15 -22 -8 -4 -15 -12 -15 -19 0 -7 -5
-15 -12 -17 -18 -6 -15 -143 5 -174 5 -8 -12 -13 -55 -16 -35 -3 -64 -10 -66
-16 -2 -7 -10 -12 -18 -12 -8 0 -14 -5 -14 -11 0 -9 29 -10 104 -5 82 6 115 4
149 -8 41 -14 49 -13 108 5 51 15 80 18 141 13 70 -6 77 -5 87 14 6 11 11 23
11 25 0 2 -27 7 -61 11 -71 7 -84 13 -69 31 12 14 11 99 -1 132 -9 24 -69 92
-69 78 0 -4 -9 0 -21 11 -12 10 -23 18 -25 17 -2 -2 -5 -3 -6 -2 -14 6 -80 3
-84 -3z"/>
<path d="M178 353 c-21 -5 -22 -16 -7 -45 8 -16 8 -23 -2 -30 -10 -7 -11 -11
-3 -14 7 -3 10 -14 7 -24 -3 -11 0 -20 6 -20 6 0 11 6 11 13 0 6 7 21 15 31
14 19 15 19 21 0 13 -37 35 -54 55 -44 12 7 20 7 24 0 4 -7 13 -7 26 0 11 6
26 7 37 2 29 -14 71 -8 87 13 12 16 14 17 9 3 -3 -10 -2 -18 4 -18 6 0 17 -2
24 -5 10 -4 14 2 14 20 0 19 -5 25 -23 25 -13 0 -23 4 -23 9 0 5 -8 17 -17 26
-16 16 -16 18 0 27 20 11 13 30 -7 22 -8 -3 -17 -1 -21 5 -11 20 -63 13 -75
-10 -14 -26 11 -59 46 -59 26 0 44 -19 20 -21 -24 -2 -30 -4 -43 -12 -6 -4
-15 -2 -18 4 -4 6 -17 8 -29 5 -23 -6 -34 -1 -54 26 -11 13 -11 20 0 38 11 17
11 22 -2 30 -9 5 -19 5 -27 -2 -9 -7 -13 -7 -13 1 0 11 -11 12 -42 4z"/>
<path d="M515 343 c-13 -13 -13 -16 0 -30 12 -12 14 -26 9 -61 -5 -32 -4 -43
5 -38 6 4 11 14 11 22 0 8 5 14 10 14 6 0 10 -8 10 -17 1 -17 1 -17 11 0 12
21 31 23 23 2 -4 -9 0 -15 8 -15 17 0 38 55 38 101 l0 35 -55 1 c-37 0 -61 -4
-70 -14z m92 -65 c-3 -8 -6 -5 -6 6 -1 11 2 17 5 13 3 -3 4 -12 1 -19z"/>
</g>
</svg>
